<?xml version="1.0" encoding="utf-8"?>
<!-- Generator: Adobe Illustrator 17.0.0, SVG Export Plug-In . SVG Version: 6.00 Build 0)  -->
<!DOCTYPE svg PUBLIC "-//W3C//DTD SVG 1.1//EN" "http://www.w3.org/Graphics/SVG/1.1/DTD/svg11.dtd">
<svg version="1.1" id="Capa_1" xmlns="http://www.w3.org/2000/svg" xmlns:xlink="http://www.w3.org/1999/xlink" x="0px" y="0px"
	 width="50px" height="40px" viewBox="0 0 50 40" enable-background="new 0 0 50 40" xml:space="preserve">
<g id="XMLID_18_">
	<path id="XMLID_155_" fill="#FFFFFF" d="M48.75,19.44v0.286v0.006v1.78v2.14v1.777v2.128v3.259L48.717,30.8v3.126v3.298V40
		l-29.423-0.478v-0.06L5.438,39.483v-3.208v-3.197v-2.779v-4.231l30.354-12.23v0.315L5.438,26.468v-3.569v-3.447l13.957-9.08v0.415
		L5.438,19.405V15.7v-3.998L20.479-0.151l13.67,10.695l1.643-0.707l1.312-0.564l0,0l0,0L37.937,10L48.75,19.44z"/>
	<linearGradient id="XMLID_3_" gradientUnits="userSpaceOnUse" x1="45.3738" y1="24.3019" x2="38.2074" y2="17.9192">
		<stop  offset="0" style="stop-color:#FFFFFF"/>
		<stop  offset="1" style="stop-color:#D6D6D6"/>
	</linearGradient>
	<polygon id="XMLID_154_" fill="url(#XMLID_3_)" points="37.122,10.125 48.113,19.729 48.113,29.484 37.122,23.965 	"/>
	<linearGradient id="XMLID_4_" gradientUnits="userSpaceOnUse" x1="38.1995" y1="38.7838" x2="27.9288" y2="29.6363">
		<stop  offset="0" style="stop-color:#FFFFFF"/>
		<stop  offset="1" style="stop-color:#D6D6D6"/>
	</linearGradient>
	<polygon id="XMLID_81_" fill="url(#XMLID_4_)" points="20.346,25.234 48.029,31.348 48.081,39.523 20.346,39.073 	"/>
	<linearGradient id="XMLID_5_" gradientUnits="userSpaceOnUse" x1="26.3058" y1="12.1326" x2="20.8017" y2="7.2304">
		<stop  offset="0" style="stop-color:#FFFFFF"/>
		<stop  offset="1" style="stop-color:#D6D6D6"/>
	</linearGradient>
	<polygon id="XMLID_80_" fill="url(#XMLID_5_)" points="20.449,0.704 33.244,10.684 22.775,15.44 20.449,14.544 	"/>
	<linearGradient id="XMLID_6_" gradientUnits="userSpaceOnUse" x1="38.6722" y1="27.0606" x2="37.6405" y2="30.2704">
		<stop  offset="0" style="stop-color:#FFFFFF"/>
		<stop  offset="0.8601" style="stop-color:#B1D1D0"/>
	</linearGradient>
	<polygon id="XMLID_79_" fill="url(#XMLID_6_)" points="28.797,25.989 45.985,30.095 48.113,29.484 37.107,23.661 	"/>
	<linearGradient id="XMLID_7_" gradientUnits="userSpaceOnUse" x1="27.8272" y1="3.5804" x2="0.9651" y2="18.2486">
		<stop  offset="0" style="stop-color:#259FCF"/>
		<stop  offset="1" style="stop-color:#31A2C4"/>
	</linearGradient>
	<path id="XMLID_73_" fill="url(#XMLID_7_)" d="M6.257,17.677l14.204-8.771V6.344L6.257,15.87V17.677z M6.257,11.877v1.817
		L20.462,3.26V0.684L6.257,11.877z M6.257,21.639l14.204-7.117v-2.546L6.257,19.841V21.639z"/>
	<linearGradient id="XMLID_8_" gradientUnits="userSpaceOnUse" x1="47.7427" y1="36.6251" x2="15.7181" y2="31.3172">
		<stop  offset="0" style="stop-color:#1C6AAE"/>
		<stop  offset="1" style="stop-color:#0E4982"/>
	</linearGradient>
	<path id="XMLID_67_" fill="url(#XMLID_8_)" d="M48.081,34.783l-27.619-3.939v2.562l27.619,3.185V34.783z M20.462,25.184v2.576
		l27.619,5.362v-1.816L20.462,25.184z M48.081,37.725l-27.619-1.249v2.547l27.619,0.5V37.725z"/>
	<linearGradient id="XMLID_9_" gradientUnits="userSpaceOnUse" x1="46.0153" y1="25.2059" x2="36.769" y2="16.056">
		<stop  offset="0" style="stop-color:#1C6AAE"/>
		<stop  offset="1" style="stop-color:#0E4982"/>
	</linearGradient>
	<path id="XMLID_59_" fill="url(#XMLID_9_)" d="M48.113,23.715l-10.991-7.929v2.561l10.991,7.175V23.715z M37.122,10.125v2.576
		l10.991,8.838v-1.816L37.122,10.125z M48.113,27.686l-10.991-6.269v2.548l10.991,5.519V27.686z"/>
	<linearGradient id="XMLID_10_" gradientUnits="userSpaceOnUse" x1="39.9086" y1="20.1401" x2="12.1801" y2="35.2813">
		<stop  offset="0" style="stop-color:#259FCF"/>
		<stop  offset="1" style="stop-color:#31A2C4"/>
	</linearGradient>
	<path id="XMLID_55_" fill="url(#XMLID_10_)" d="M6.257,35.567l14.204-2.19v-2.563L6.257,33.76V35.567z M6.257,30.282v1.816
		l14.204-4.369v-2.576L6.257,30.282z M6.257,39.014l14.204-0.022v-2.547L6.257,37.216V39.014z"/>
	<linearGradient id="XMLID_11_" gradientUnits="userSpaceOnUse" x1="37.2621" y1="15.1806" x2="8.6416" y2="30.809">
		<stop  offset="0" style="stop-color:#259FCF"/>
		<stop  offset="1" style="stop-color:#31A2C4"/>
	</linearGradient>
	<path id="XMLID_51_" fill="url(#XMLID_11_)" d="M6.257,29.205l30.86-10.857v-2.562L6.257,27.398V29.205z M6.257,23.406v1.817
		l30.86-12.521v-2.576L6.257,23.406z M28.797,25.989l8.321-2.025v-2.548l-12.223,3.651L28.797,25.989z"/>
	<linearGradient id="XMLID_12_" gradientUnits="userSpaceOnUse" x1="29.4069" y1="14.7985" x2="20.3689" y2="7.0289">
		<stop  offset="0" style="stop-color:#1C6AAE"/>
		<stop  offset="1" style="stop-color:#0E4982"/>
	</linearGradient>
	<path id="XMLID_47_" fill="url(#XMLID_12_)" d="M20.462,8.906l7.023,4.413l1.984-0.907l-9.008-6.067V8.906z M20.462,0.684V3.26
		l11.158,8.168l1.624-0.743L20.462,0.684z M20.462,14.521l2.313,0.919l2.055-0.907l-4.368-2.559V14.521z"/>
	<g id="XMLID_41_">
		<path id="XMLID_42_" fill="#B3B3B3" d="M-0.276,14.743"/>
	</g>
	<linearGradient id="XMLID_13_" gradientUnits="userSpaceOnUse" x1="14.3383" y1="18.252" x2="15.6675" y2="20.3992">
		<stop  offset="0" style="stop-color:#FFFFFF"/>
		<stop  offset="0.4159" style="stop-color:#D8E8E7"/>
		<stop  offset="0.7864" style="stop-color:#BCD7D6"/>
		<stop  offset="1" style="stop-color:#B1D1D0"/>
	</linearGradient>
	<polygon id="XMLID_40_" fill="url(#XMLID_13_)" points="22.775,15.44 8.153,21.915 6.257,21.639 20.462,14.521 	"/>
</g>
</svg>
