<?xml version="1.0" encoding="utf-8"?>
<!-- Generator: Adobe Illustrator 17.0.0, SVG Export Plug-In . SVG Version: 6.00 Build 0)  -->
<!DOCTYPE svg PUBLIC "-//W3C//DTD SVG 1.1//EN" "http://www.w3.org/Graphics/SVG/1.1/DTD/svg11.dtd">
<svg version="1.1" id="Capa_1" xmlns="http://www.w3.org/2000/svg" xmlns:xlink="http://www.w3.org/1999/xlink" x="0px" y="0px"
	 width="40px" height="40px" viewBox="0 0 40 40" enable-background="new 0 0 40 40" xml:space="preserve">
<g id="XMLID_18_">
	<path id="XMLID_155_" fill="#FFFFFF" d="M39.125,19.516v0.286v0.006v1.78v2.14v1.777v2.128v3.259l-0.028-0.016v3.126V37.3v2.776
		l-25.332-0.478v-0.06l-11.93,0.021v-3.208v-3.197v-2.779v-4.231l26.133-12.23v0.315L1.836,26.543v-3.569v-3.447l12.016-9.08v0.415
		L1.836,19.48v-3.705v-3.998L14.785-0.075L26.554,10.62l1.415-0.707l1.13-0.564l0,0l0,0l0.717,0.727L39.125,19.516z"/>
	<linearGradient id="XMLID_3_" gradientUnits="userSpaceOnUse" x1="36.6896" y1="23.8672" x2="29.9112" y2="17.83">
		<stop  offset="0" style="stop-color:#FFFFFF"/>
		<stop  offset="1" style="stop-color:#D6D6D6"/>
	</linearGradient>
	<polygon id="XMLID_154_" fill="url(#XMLID_3_)" points="29.114,10.2 38.576,19.805 38.576,29.559 29.114,24.04 	"/>
	<linearGradient id="XMLID_4_" gradientUnits="userSpaceOnUse" x1="30.0823" y1="38.3985" x2="20.7906" y2="30.123">
		<stop  offset="0" style="stop-color:#FFFFFF"/>
		<stop  offset="1" style="stop-color:#D6D6D6"/>
	</linearGradient>
	<polygon id="XMLID_81_" fill="url(#XMLID_4_)" points="14.67,25.309 38.504,31.424 38.549,39.598 14.67,39.148 	"/>
	<linearGradient id="XMLID_5_" gradientUnits="userSpaceOnUse" x1="19.5309" y1="11.9491" x2="14.4784" y2="7.4492">
		<stop  offset="0" style="stop-color:#FFFFFF"/>
		<stop  offset="1" style="stop-color:#D6D6D6"/>
	</linearGradient>
	<polygon id="XMLID_80_" fill="url(#XMLID_5_)" points="14.759,0.78 25.775,10.76 16.762,15.515 14.759,14.619 	"/>
	<linearGradient id="XMLID_6_" gradientUnits="userSpaceOnUse" x1="30.559" y1="26.8862" x2="29.6039" y2="29.8576">
		<stop  offset="0" style="stop-color:#FFFFFF"/>
		<stop  offset="0.8601" style="stop-color:#B1D1D0"/>
	</linearGradient>
	<polygon id="XMLID_79_" fill="url(#XMLID_6_)" points="21.947,26.065 36.745,30.17 38.576,29.559 29.101,23.736 	"/>
	<linearGradient id="XMLID_7_" gradientUnits="userSpaceOnUse" x1="21.885" y1="4.0124" x2="-2.9083" y2="17.5509">
		<stop  offset="0" style="stop-color:#259FCF"/>
		<stop  offset="1" style="stop-color:#31A2C4"/>
	</linearGradient>
	<path id="XMLID_73_" fill="url(#XMLID_7_)" d="M2.541,17.752L14.77,8.981V6.42L2.541,15.945V17.752z M2.541,11.952v1.817
		L14.77,3.335V0.759L2.541,11.952z M2.541,21.714l12.229-7.117V12.05L2.541,19.917V21.714z"/>
	<linearGradient id="XMLID_8_" gradientUnits="userSpaceOnUse" x1="38.4155" y1="36.0978" x2="10.491" y2="31.4694">
		<stop  offset="0" style="stop-color:#1C6AAE"/>
		<stop  offset="1" style="stop-color:#0E4982"/>
	</linearGradient>
	<path id="XMLID_67_" fill="url(#XMLID_8_)" d="M38.549,34.859L14.77,30.92v2.562l23.778,3.185V34.859z M14.77,25.259v2.576
		l23.778,5.362v-1.816L14.77,25.259z M38.549,37.8L14.77,36.551v2.547l23.778,0.5V37.8z"/>
	<linearGradient id="XMLID_9_" gradientUnits="userSpaceOnUse" x1="37.0775" y1="25.0006" x2="28.3" y2="16.3145">
		<stop  offset="0" style="stop-color:#1C6AAE"/>
		<stop  offset="1" style="stop-color:#0E4982"/>
	</linearGradient>
	<path id="XMLID_59_" fill="url(#XMLID_9_)" d="M38.576,23.79l-9.462-7.929v2.561l9.462,7.175V23.79z M29.114,10.2v2.576
		l9.462,8.838v-1.816L29.114,10.2z M38.576,27.761l-9.462-6.269v2.548l9.462,5.519V27.761z"/>
	<linearGradient id="XMLID_10_" gradientUnits="userSpaceOnUse" x1="32.8938" y1="21.4773" x2="7.6806" y2="35.245">
		<stop  offset="0" style="stop-color:#259FCF"/>
		<stop  offset="1" style="stop-color:#31A2C4"/>
	</linearGradient>
	<path id="XMLID_55_" fill="url(#XMLID_10_)" d="M2.541,35.642l12.229-2.19V30.89L2.541,33.835V35.642z M2.541,30.358v1.816
		l12.229-4.369v-2.576L2.541,30.358z M2.541,39.089l12.229-0.022v-2.547L2.541,37.291V39.089z"/>
	<linearGradient id="XMLID_11_" gradientUnits="userSpaceOnUse" x1="29.9568" y1="16.044" x2="4.3116" y2="30.0477">
		<stop  offset="0" style="stop-color:#259FCF"/>
		<stop  offset="1" style="stop-color:#31A2C4"/>
	</linearGradient>
	<path id="XMLID_51_" fill="url(#XMLID_11_)" d="M2.541,29.281L29.11,18.424v-2.562L2.541,27.473V29.281z M2.541,23.481v1.817
		L29.11,12.777V10.2L2.541,23.481z M21.947,26.065l7.164-2.025v-2.548l-10.524,3.651L21.947,26.065z"/>
	<linearGradient id="XMLID_12_" gradientUnits="userSpaceOnUse" x1="22.4637" y1="14.2914" x2="14.177" y2="7.1678">
		<stop  offset="0" style="stop-color:#1C6AAE"/>
		<stop  offset="1" style="stop-color:#0E4982"/>
	</linearGradient>
	<path id="XMLID_47_" fill="url(#XMLID_12_)" d="M14.77,8.981l6.047,4.413l1.708-0.907L14.77,6.42V8.981z M14.77,0.759v2.576
		l9.607,8.168l1.398-0.743L14.77,0.759z M14.77,14.596l1.992,0.919l1.769-0.907l-3.76-2.559V14.596z"/>
	<g id="XMLID_41_">
		<path id="XMLID_42_" fill="#B3B3B3" d="M-3.084,14.818"/>
	</g>
	<linearGradient id="XMLID_13_" gradientUnits="userSpaceOnUse" x1="9.5364" y1="18.4288" x2="10.3962" y2="19.8178">
		<stop  offset="0" style="stop-color:#FFFFFF"/>
		<stop  offset="0.4159" style="stop-color:#D8E8E7"/>
		<stop  offset="0.7864" style="stop-color:#BCD7D6"/>
		<stop  offset="1" style="stop-color:#B1D1D0"/>
	</linearGradient>
	<polygon id="XMLID_40_" fill="url(#XMLID_13_)" points="16.762,15.515 4.173,21.99 2.541,21.714 14.77,14.596 	"/>
</g>
</svg>
