<?xml version="1.0" encoding="utf-8"?>
<!-- Generator: Adobe Illustrator 17.0.0, SVG Export Plug-In . SVG Version: 6.00 Build 0)  -->
<!DOCTYPE svg PUBLIC "-//W3C//DTD SVG 1.1//EN" "http://www.w3.org/Graphics/SVG/1.1/DTD/svg11.dtd">
<svg version="1.1" id="Layer_1" xmlns="http://www.w3.org/2000/svg" xmlns:xlink="http://www.w3.org/1999/xlink" x="0px" y="0px"
	 width="595.28px" height="841.89px" viewBox="0 0 595.28 841.89" enable-background="new 0 0 595.28 841.89" xml:space="preserve">
<g>
	<g>
		<g>
			<path fill="#FFFFFF" d="M545.672,520.159c-5.487,0-9.921,4.445-9.921,9.921v168.662h-69.448c-5.487,0-9.921,4.445-9.921,9.921
				c0,5.476,4.434,9.921,9.921,9.921h79.37c5.487,0,9.921-4.445,9.921-9.921V530.08
				C555.593,524.604,551.158,520.159,545.672,520.159z"/>
			<path fill="#FFFFFF" d="M515.907,609.451v-79.37c0-5.476-4.434-9.921-9.921-9.921h-59.528c-5.487,0-9.921,4.445-9.921,9.921
				v79.37c0,5.476,4.434,9.921,9.921,9.921h59.528C511.473,619.372,515.907,614.927,515.907,609.451z M496.065,599.529h-39.685
				v-59.528h39.685V599.529z"/>
			<path fill="#FFFFFF" d="M386.931,291.97c5.487,0,9.921-4.445,9.921-9.921v-49.607c0-5.476-4.434-9.921-9.921-9.921H89.294
				c-5.487,0-9.921,4.445-9.921,9.921v347.244c0,5.476,4.434,9.921,9.921,9.921s9.921-4.445,9.921-9.921v-19.843h9.921
				c5.487,0,9.921-4.445,9.921-9.921c0-5.476-4.434-9.921-9.921-9.921h-9.921v-59.528h39.685v39.685
				c0,5.476,4.434,9.921,9.921,9.921c5.487,0,9.921-4.445,9.921-9.921v-39.685h39.685c5.487,0,9.921-4.445,9.921-9.921
				c5.487,0,9.921-4.445,9.921-9.921v-59.528h39.685c0,5.476,4.434,9.921,9.921,9.921s9.921-4.445,9.921-9.921
				c5.487,0,9.921-4.445,9.921-9.921c0-5.476-4.434-9.921-9.921-9.921v-59.528h39.685v19.843c0,5.476,4.434,9.921,9.921,9.921
				c5.487,0,9.921-4.445,9.921-9.921v-19.845h19.843c5.487,0,9.921-4.445,9.921-9.921s-4.434-9.921-9.921-9.921H337.32v-59.528
				h39.685v39.685C377.01,287.525,381.445,291.97,386.931,291.97z M138.9,460.632H99.214v-59.528h39.685v59.528H138.9z
				 M138.9,381.262H99.214v-59.528h39.685v59.528H138.9z M138.9,301.891H99.214v-59.528h39.685v59.528H138.9z M198.428,460.632
				h-39.685v-59.528h39.685V460.632z M198.428,381.262h-39.685v-59.528h39.685V381.262z M198.428,301.891h-39.685v-59.528h39.685
				V301.891z M257.955,381.262h-39.685v-59.528h39.685V381.262z M257.955,301.891h-39.685v-59.528h39.685V301.891z M317.483,301.891
				h-39.685v-59.528h39.685V301.891z"/>
			<path fill="#FFFFFF" d="M49.609,629.293c5.487,0,9.921-4.445,9.921-9.921V202.679h69.448c5.487,0,9.921-4.445,9.921-9.921
				v-29.764h69.448c5.487,0,9.921-4.445,9.921-9.921v-9.922h39.685v9.921c0,5.476,4.434,9.921,9.921,9.921h69.448v19.843H168.664
				c-5.487,0-9.921,4.445-9.921,9.921s4.434,9.921,9.921,9.921h248.031v39.685c0,5.476,4.434,9.921,9.921,9.921
				c5.487,0,9.921-4.445,9.921-9.921v-49.604c0-5.476-4.434-9.921-9.921-9.921h-69.448v-29.764c0-5.476-4.434-9.921-9.921-9.921
				h-69.448v-9.922c0-5.476-4.434-9.921-9.921-9.921H208.35c-5.487,0-9.921,4.445-9.921,9.921v9.921h-69.448
				c-5.487,0-9.921,4.445-9.921,9.921v29.764H49.609c-5.487,0-9.921,4.445-9.921,9.921v426.615
				C39.687,624.848,44.122,629.293,49.609,629.293z"/>
			<path fill="#FFFFFF" d="M585.357,341.577h-69.448v-9.921c0-5.476-4.434-9.921-9.921-9.921h-39.685
				c-5.487,0-9.921,4.445-9.921,9.921v19.843c0,5.476,4.434,9.921,9.921,9.921c5.487,0,9.921-4.445,9.921-9.921v-9.921h19.843v9.921
				c0,5.476,4.434,9.921,9.921,9.921h69.448v134.79L423.71,344.485c-3.88-3.879-10.15-3.879-14.029,0
				c-3.88,3.88-3.88,10.15,0,14.029l168.661,168.661c1.895,1.895,4.434,2.907,7.014,2.907c1.28,0,2.569-0.248,3.8-0.755
				c3.711-1.538,6.121-5.159,6.121-9.167V351.498C595.278,346.021,590.843,341.577,585.357,341.577z"/>
			<path fill="#FFFFFF" d="M426.616,678.899h-99.212c-5.487,0-9.921,4.445-9.921,9.921v9.921h-99.212V559.844
				c0-5.476-4.434-9.921-9.921-9.921s-9.921,4.445-9.921,9.921v148.819c0,5.476,4.434,9.921,9.921,9.921h119.055
				c5.487,0,9.921-4.445,9.921-9.921v-9.921h79.37v9.921c0,5.476,4.434,9.921,9.921,9.921c5.487,0,9.921-4.445,9.921-9.921V688.82
				C436.538,683.344,432.102,678.899,426.616,678.899z"/>
			<path fill="#FFFFFF" d="M592.371,126.215c-3.879-3.879-10.15-3.879-14.029,0L2.909,701.649c-3.879,3.88-3.879,10.15,0,14.029
				c1.935,1.935,4.475,2.907,7.014,2.907c2.54,0,5.08-0.972,7.014-2.907l575.434-575.432
				C596.25,136.365,596.25,130.095,592.371,126.215z"/>
			<path fill="#FFFFFF" d="M406.774,659.056c5.487,0,9.921-4.445,9.921-9.921V530.08c0-5.476-4.434-9.921-9.921-9.921h-59.528
				c-5.487,0-9.921,4.445-9.921,9.921v119.055c0,5.476,4.434,9.921,9.921,9.921c5.487,0,9.921-4.445,9.921-9.921V540.001h39.685
				v39.685h-9.921c-5.487,0-9.921,4.445-9.921,9.921c0,5.476,4.434,9.921,9.921,9.921h9.921v49.607
				C396.853,654.612,401.288,659.056,406.774,659.056z"/>
			<path fill="#FFFFFF" d="M248.034,520.159c-5.487,0-9.921,4.445-9.921,9.921v79.37c0,5.476,4.434,9.921,9.921,9.921h59.528
				c5.487,0,9.921-4.445,9.921-9.921v-79.37c0-5.476-4.434-9.921-9.921-9.921H248.034z M297.64,599.529h-39.685v-59.528h39.685
				V599.529z"/>
		</g>
	</g>
</g>
</svg>
